<svg width="55" height="54" viewBox="0 0 55 54" fill="none" xmlns="http://www.w3.org/2000/svg">
<path d="M50 38.25V29.25C50 16.8236 39.9264 6.75 27.5 6.75C15.0736 6.75 5 16.8236 5 29.25V38.25M17.375 47.25C14.2684 47.25 11.75 44.7316 11.75 41.625V34.875C11.75 31.7684 14.2684 29.25 17.375 29.25C20.4816 29.25 23 31.7684 23 34.875V41.625C23 44.7316 20.4816 47.25 17.375 47.25ZM37.625 47.25C34.5184 47.25 32 44.7316 32 41.625V34.875C32 31.7684 34.5184 29.25 37.625 29.25C40.7316 29.25 43.25 31.7684 43.25 34.875V41.625C43.25 44.7316 40.7316 47.25 37.625 47.25Z" stroke="white" stroke-width="5.0625" stroke-linecap="round" stroke-linejoin="round"/>
</svg>
