<svg width="129" height="35" viewBox="0 0 129 35" fill="none" xmlns="http://www.w3.org/2000/svg">
<path d="M3.16575 34.689C2.22075 34.689 1.4175 34.626 0.756 34.5V29.775C1.26 29.901 1.827 29.964 2.457 29.964C3.4965 29.964 4.26825 29.712 4.77225 29.208C5.27625 28.6725 5.52825 27.8692 5.52825 26.7982V1.425H10.7258V26.6565C10.7258 29.3655 10.0958 31.3815 8.83575 32.7045C7.60725 34.0275 5.71725 34.689 3.16575 34.689ZM18.3659 1.425H25.4061L30.7926 34.5H25.5951L24.6501 27.9322V28.0267H18.7439L17.7989 34.5H12.9794L18.3659 1.425ZM24.0359 23.538L21.7206 7.1895H21.6261L19.3581 23.538H24.0359ZM33.3142 1.425H40.7325L44.04 25.0972H44.1345L47.442 1.425H54.8602V34.5H49.9462V9.4575H49.8517L46.0717 34.5H41.7247L37.9447 9.4575H37.8502V34.5H33.3142V1.425ZM66.2515 34.9725C63.7 34.9725 61.747 34.248 60.3925 32.799C59.038 31.35 58.3608 29.3025 58.3608 26.6565V9.2685C58.3608 6.6225 59.038 4.575 60.3925 3.126C61.747 1.677 63.7 0.952498 66.2515 0.952498C68.803 0.952498 70.756 1.677 72.1105 3.126C73.465 4.575 74.1423 6.6225 74.1423 9.2685V26.6565C74.1423 29.3025 73.465 31.35 72.1105 32.799C70.756 34.248 68.803 34.9725 66.2515 34.9725ZM66.2515 30.2475C68.047 30.2475 68.9448 29.1607 68.9448 26.9872V8.93775C68.9448 6.76425 68.047 5.6775 66.2515 5.6775C64.456 5.6775 63.5583 6.76425 63.5583 8.93775V26.9872C63.5583 29.1607 64.456 30.2475 66.2515 30.2475ZM76.1947 1.425H81.4394L84.8414 27.0817H84.9359L88.3379 1.425H93.1102L88.1017 34.5H81.2032L76.1947 1.425ZM95.6067 1.425H109.782V6.15H100.804V14.8912H107.939V19.6162H100.804V29.775H109.782V34.5H95.6067V1.425ZM120.284 34.9725C117.733 34.9725 115.78 34.248 114.425 32.799C113.071 31.35 112.394 29.3025 112.394 26.6565V9.2685C112.394 6.6225 113.071 4.575 114.425 3.126C115.78 1.677 117.733 0.952498 120.284 0.952498C122.836 0.952498 124.789 1.677 126.143 3.126C127.498 4.575 128.175 6.6225 128.175 9.2685V26.6565C128.175 29.3025 127.498 31.35 126.143 32.799C124.789 34.248 122.836 34.9725 120.284 34.9725ZM120.284 30.2475C122.08 30.2475 122.978 29.1607 122.978 26.9872V8.93775C122.978 6.76425 122.08 5.6775 120.284 5.6775C118.489 5.6775 117.591 6.76425 117.591 8.93775V26.9872C117.591 29.1607 118.489 30.2475 120.284 30.2475Z" fill="white"/>
</svg>
